<?xml version="1.0" encoding="utf-8"?>
<!-- Generator: Adobe Illustrator 16.0.0, SVG Export Plug-In . SVG Version: 6.00 Build 0)  -->
<!DOCTYPE svg PUBLIC "-//W3C//DTD SVG 1.1//EN" "http://www.w3.org/Graphics/SVG/1.1/DTD/svg11.dtd">
<svg version="1.1" id="Layer_1" xmlns="http://www.w3.org/2000/svg" xmlns:xlink="http://www.w3.org/1999/xlink" x="0px" y="0px"
	 width="28.35px" height="28.35px" viewBox="0 0 28.35 28.35" enable-background="new 0 0 28.35 28.35" xml:space="preserve">
<g>
	
		<path fill="#FFFFFF" stroke="#000000" stroke-width="0.5" stroke-linecap="round" stroke-linejoin="round" stroke-miterlimit="10" d="
		M2.124,21.125c0,0,2.753,0.947,6.297,2.994c3.546,2.048,5.742,3.958,5.742,3.958s2.196-1.91,5.742-3.958
		c3.547-2.047,6.299-2.994,6.299-2.994s-0.557-2.856-0.557-6.952c0-4.093,0.557-6.949,0.557-6.949s-2.754-0.947-6.299-2.995
		c-3.546-2.047-5.742-3.958-5.742-3.958S11.966,2.183,8.42,4.229C4.875,6.277,2.124,7.224,2.124,7.224s0.556,2.856,0.556,6.951
		C2.679,18.269,2.124,21.125,2.124,21.125z"/>
	<path fill="none" stroke="#000000" stroke-width="0.5" stroke-linecap="round" stroke-linejoin="round" stroke-miterlimit="10" d="
		M23.27,19.461c0,0-2.148-2.455-5.101-7.571c-2.963-5.128-4.006-8.205-4.006-8.205s-1.044,3.076-4.004,8.205
		c-2.961,5.129-5.103,7.571-5.103,7.571s3.185-0.631,9.107-0.631C20.085,18.83,23.27,19.461,23.27,19.461z"/>
	<path fill="none" stroke="#000000" stroke-width="0.5" stroke-linecap="round" stroke-linejoin="round" stroke-miterlimit="10" d="
		M5.055,19.423c0,0,2.149,1.301,5.104,4.012c2.96,2.717,4.004,4.348,4.004,4.348s1.044-1.631,4.005-4.348
		c2.96-2.718,5.101-4.012,5.101-4.012"/>
	<path fill="none" stroke="#000000" stroke-width="0.5" stroke-linecap="round" stroke-linejoin="round" stroke-miterlimit="10" d="
		M23.27,19.461c0,0,0.053-2.512,0.926-6.425c0.873-3.923,1.76-5.642,1.76-5.642S24.023,7.303,20.188,6.1
		c-3.833-1.207-6.025-2.414-6.025-2.414"/>
	<path fill="none" stroke="#000000" stroke-width="0.5" stroke-linecap="round" stroke-linejoin="round" stroke-miterlimit="10" d="
		M14.163,3.686c0,0-2.202,1.212-6.025,2.414C4.303,7.305,2.371,7.395,2.371,7.395s0.888,1.721,1.761,5.642
		c0.873,3.924,0.923,6.425,0.923,6.425"/>
	
		<line fill="none" stroke="#000000" stroke-width="0.5" stroke-linecap="round" stroke-linejoin="round" stroke-miterlimit="10" x1="14.163" y1="0.272" x2="14.163" y2="3.686"/>
	
		<line fill="none" stroke="#000000" stroke-width="0.5" stroke-linecap="round" stroke-linejoin="round" stroke-miterlimit="10" x1="2.124" y1="21.168" x2="5.08" y2="19.461"/>
	
		<line fill="none" stroke="#000000" stroke-width="0.5" stroke-linecap="round" stroke-linejoin="round" stroke-miterlimit="10" x1="26.227" y1="21.127" x2="23.27" y2="19.423"/>
</g>
</svg>
