<?xml version="1.0" standalone="no"?>
<svg width="auto" height="auto" xmlns="http://www.w3.org/2000/svg">

<!-- <clipPath id="box">
	<rect x="0" y="20" width="100%" height="100%" />
</clipPath> -->

  <svg x="0" y="0" width="51%" height="100%" viewBox="0 0 2000 2000" preserveAspectRatio="xMinYMax slice" id="edge">
	<path fill="#808080" d="M2000.013,2000.013H12.073c-3.334-4.375-12.073,0-12.073,0s4.333-8.75,0-12.168V0h2.666l0.031,1985.202
		c4.333,3.416,0,12.166,0,12.166s8.708-4.375,12.043,0h1985.272V2000.013z"/>
  </svg>

  <!-- <svg x="49%" y="0" width="51%" height="auto" viewBox="0 0 2000 2000" preserveAspectRatio="xMaxYMid slice">
	<path fill="#808080" d="M0,20V0h1987.926C1991.26,4.375,2000,0,2000,0s-4.334,8.75,0,12.164V20H0z"/>
	<path fill="#FFFFFF" d="M1993.104,10.28c-0.553-0.551,0.185-3.496,1.106-4.417c-0.922,0.921-3.867,1.659-4.418,1.107
		c0.551,0.552-0.188,3.498-1.109,4.419C1989.605,10.469,1992.552,9.729,1993.104,10.28z"/>
  </svg> -->


<!-- <use clip-path="url(#box)" href="#edge" fill="red" /> -->
</svg>
