<?xml version="1.0" encoding="utf-8"?>
<!-- Generator: Adobe Illustrator 16.0.0, SVG Export Plug-In . SVG Version: 6.00 Build 0)  -->
<!DOCTYPE svg PUBLIC "-//W3C//DTD SVG 1.1//EN" "http://www.w3.org/Graphics/SVG/1.1/DTD/svg11.dtd">
<svg version="1.1" id="Layer_1" xmlns="http://www.w3.org/2000/svg" xmlns:xlink="http://www.w3.org/1999/xlink" x="0px" y="0px"
	 width="28.35px" height="28.35px" viewBox="0 0 28.35 28.35" enable-background="new 0 0 28.35 28.35" xml:space="preserve">
<g>
	
		<path fill="#FFFFFF" stroke="#707071" stroke-width="0.5" stroke-linecap="round" stroke-linejoin="round" stroke-miterlimit="10" d="
		M23.297,1.544c0,0-2.962,0.496-7.069,0.5c-4.109,0.007-6.88-0.48-6.88-0.48S7.926,3.993,5.266,7.126
		c-2.66,3.132-4.949,5.072-4.949,5.072l14.565,1.307L23.297,1.544z"/>
	
		<path fill="#FFFFFF" stroke="#707071" stroke-width="0.5" stroke-linecap="round" stroke-linejoin="round" stroke-miterlimit="10" d="
		M0.315,12.197c0,0,1.91,2.318,3.969,5.874c2.06,3.554,3.023,6.197,3.023,6.197s2.815,0.016,6.858,0.754
		c4.043,0.736,6.866,1.749,6.866,1.749L14.88,13.505L0.315,12.197z"/>
	
		<path fill="#FFFFFF" stroke="#707071" stroke-width="0.5" stroke-linecap="round" stroke-linejoin="round" stroke-miterlimit="10" d="
		M21.031,26.771c0,0,1.054-2.813,3.103-6.372c2.05-3.563,3.856-5.718,3.856-5.718s-1.394-2.443-2.776-6.315
		c-1.383-3.869-1.917-6.822-1.917-6.822l-8.413,11.961L21.031,26.771z"/>
</g>
</svg>
